<svg width="20" height="16" viewBox="0 0 20 16" version="1.1" xmlns="http://www.w3.org/2000/svg" xmlns:xlink="http://www.w3.org/1999/xlink" xml:space="preserve" xmlns:serif="http://www.serif.com/" style="fill-rule:evenodd;clip-rule:evenodd;stroke-linejoin:round;stroke-miterlimit:2;">
    <path d="M1.585,7.7L1.298,7.413L1.267,7.382L1.235,7.351L1.001,7.092C-0.417,5.393 -0.329,2.862 1.267,1.267C2.862,-0.329 5.393,-0.417 7.092,1.001L9.896,3.78L12.7,1.002C14.399,-0.417 16.93,-0.329 18.526,1.267C20.121,2.862 20.209,5.394 18.791,7.093L18.802,7.104L18.592,7.315L18.526,7.382L18.458,7.449L18.206,7.701L18.19,7.695C18.194,7.698 18.198,7.702 18.201,7.705L9.907,16L9.896,15.989L9.884,16L9.295,15.41C9.295,15.41 9.287,15.395 9.283,15.399L1.59,7.705C1.594,7.701 1.585,7.7 1.585,7.7ZM1.753,6.667L1.831,6.744L1.827,6.754L1.836,6.765L1.84,6.754L1.87,6.783L1.895,6.809L1.888,6.827L1.891,6.832L1.899,6.812L9.896,14.809L17.864,6.841L17.871,6.834L17.925,6.781L17.978,6.726L17.982,6.735L17.998,6.715L17.996,6.709L18.044,6.66L18.138,6.548C19.278,5.183 19.206,3.149 17.925,1.868C16.651,0.594 14.635,0.516 13.271,1.633L9.896,4.976L6.517,1.628C5.152,0.516 3.139,0.596 1.868,1.868C0.586,3.149 0.514,5.182 1.654,6.547L1.753,6.667Z" style="fill:rgb(255,90,159);"/>
</svg>
