<?xml version="1.0" encoding="UTF-8" standalone="no"?>
<!DOCTYPE svg PUBLIC "-//W3C//DTD SVG 1.1//EN" "http://www.w3.org/Graphics/SVG/1.1/DTD/svg11.dtd">
<svg width="100%" height="100%" viewBox="0 0 109 165" version="1.1" xmlns="http://www.w3.org/2000/svg" xmlns:xlink="http://www.w3.org/1999/xlink" xml:space="preserve" xmlns:serif="http://www.serif.com/" style="fill-rule:evenodd;clip-rule:evenodd;stroke-linejoin:round;stroke-miterlimit:2;">
    <g transform="matrix(1,0,0,1,-2390,-997)">
        <g transform="matrix(1,0,0,1,2192.33,0)">
            <g id="logo" transform="matrix(1,0,0,1,-1086.36,359.946)">
                <g transform="matrix(0.718862,0,0,0.718862,-620.697,352.762)">
                    <path d="M2791.49,432.757C2796.83,434.307 2800.99,439.399 2801.03,445.33L2791.03,595.227C2791.01,596.209 2790.97,596.435 2790.88,597.016C2789.97,602.976 2784.51,607.89 2778.19,607.928L2745.07,607.928L2730.23,622.774C2730.23,622.774 2724.95,626.303 2721.03,622.774L2706.19,607.928C2694.93,607.928 2683.48,608.263 2672.6,607.919C2666.09,607.632 2660.37,601.953 2660.23,595.227L2650.23,445.33C2650.27,439.614 2654.29,434.328 2659.78,432.749L2678.06,410.515C2679.25,409.062 2681.03,408.22 2682.91,408.22C2684.8,408.22 2686.58,409.062 2687.77,410.515L2699.33,424.576L2720.77,398.483C2721.97,397.03 2723.75,396.188 2725.63,396.188C2727.51,396.188 2729.29,397.03 2730.49,398.483L2751.93,424.576L2763.49,410.515C2764.68,409.062 2766.47,408.22 2768.35,408.22C2770.23,408.22 2772.01,409.062 2773.2,410.515L2791.49,432.757ZM2788.01,445.274L2663.26,445.274L2673.23,594.928L2708.88,594.928C2708.9,594.931 2711.88,595.38 2713.48,596.832L2725.63,608.985L2737.78,596.832C2737.78,596.832 2740.21,595.034 2742.38,594.928L2778.03,594.839L2788.01,445.274ZM2682.91,424.408L2676.56,432.136L2689.27,432.136L2682.91,424.408ZM2725.63,412.376L2709.39,432.136L2741.87,432.136L2725.63,412.376ZM2768.35,424.408L2762,432.136L2774.7,432.136L2768.35,424.408Z" style="fill:rgb(56,64,80);"/>
                </g>
                <g transform="matrix(1.11669,0,0,1.11669,266.129,213.611)">
                    <circle cx="960.457" cy="496.457" r="5.457" style="fill:rgb(56,64,80);"/>
                </g>
                <g transform="matrix(0.394423,0,0,0.394423,-86.4922,483.171)">
                    <path d="M3543.32,527.303C3536.99,527.303 3531.86,522.168 3531.86,515.844C3531.86,509.52 3536.99,504.386 3543.32,504.386L3683.17,504.386C3689.5,504.386 3694.63,509.52 3694.63,515.844C3694.63,522.168 3689.5,527.303 3683.17,527.303L3543.32,527.303Z" style="fill:rgb(56,64,80);"/>
                </g>
                <g transform="matrix(0.198164,0,0,0.394423,622.641,498.578)">
                    <path d="M3543.32,527.303C3530.73,527.303 3520.51,522.168 3520.51,515.844C3520.51,509.52 3530.73,504.386 3543.32,504.386L3683.17,504.386C3695.76,504.386 3705.98,509.52 3705.98,515.844C3705.98,522.168 3695.76,527.303 3683.17,527.303L3543.32,527.303Z" style="fill:rgb(56,64,80);"/>
                </g>
                <g transform="matrix(0.0419009,-0.0419009,0.278899,0.278899,1055.93,733.506)">
                    <path d="M3543.32,527.303C3501.22,527.303 3467.05,522.168 3467.05,515.844C3467.05,509.52 3501.22,504.386 3543.32,504.386L3683.17,504.386C3725.27,504.386 3759.44,509.52 3759.44,515.844C3759.44,522.168 3725.27,527.303 3683.17,527.303L3543.32,527.303Z" style="fill:rgb(56,64,80);"/>
                </g>
                <g transform="matrix(0.110612,-0.110612,0.278899,0.278899,787.383,1002.05)">
                    <path d="M3654.28,504.386L3654.28,460.377C3654.28,454.053 3667.23,448.918 3683.17,448.918C3699.12,448.918 3712.07,454.053 3712.07,460.377L3712.07,571.312C3712.07,577.636 3699.12,582.77 3683.17,582.77C3667.23,582.77 3654.28,577.636 3654.28,571.312L3654.28,527.303L3543.32,527.303C3527.37,527.303 3514.43,522.168 3514.43,515.844C3514.43,509.52 3527.37,504.386 3543.32,504.386L3654.28,504.386Z" style="fill:rgb(56,64,80);"/>
                </g>
            </g>
        </g>
    </g>
</svg>
